# xmcd
#
# Track frame offsets:
#	150
#	842
#	20129
#	39649
#	58757
#
# Disc length: 1040 seconds
#
# Revision: 0
# Processed by: cddbd v1.4PL0 Copyright (c) Steve Scherf et al.
# Submitted via: dBpowerAMP V4.0
#
DISCID=35040e05
DTITLE=Misc - 香港是我家
DYEAR=2000
DGENRE=Country
TTITLE0=DATA
TTITLE1=DATA
TTITLE2=DATA
TTITLE3=前一步
TTITLE4=前一步(Music)
EXTD=香港是我家
EXTT0=
EXTT1=
EXTT2=
EXTT3=
EXTT4=
PLAYORDER=
